<svg width="169" height="19" viewBox="0 0 169 19" fill="none" xmlns="http://www.w3.org/2000/svg">
<path d="M108.105 18.6888L108.267 18.3289L109.982 14.3704H109.977L113.232 7.05145L116.511 14.3704H116.506L118.373 18.6888H121.85L114.831 3.20961L113.277 0L104.735 18.6888H108.105Z" fill="white"/>
<path d="M0 9.58976V9.53627C0 4.3328 4.04148 0.0727539 9.79337 0.0727539C13.2899 0.0727539 15.409 1.24961 17.2254 2.9225L15.0811 5.30054C13.5624 3.93888 11.9377 3.02463 9.76307 3.02463C6.15552 3.02463 3.49657 5.89871 3.49657 9.48279V9.53627C3.49657 13.1155 6.12525 16.0187 9.76307 16.0187C12.0941 16.0187 13.5876 15.1288 15.2123 13.665L17.3566 15.7561C15.3788 17.7451 13.2092 18.9998 9.65208 18.9998C4.12219 19.0047 0 14.8467 0 9.58976Z" fill="white"/>
<path d="M20.8531 0.389038H24.1882V15.7612H34.1683V18.6887H20.8531V0.389038Z" fill="white"/>
<path d="M37.8313 0.389038H41.1665V18.6887H37.8313V0.389038Z" fill="white"/>
<path d="M45.3946 9.58989V9.53641C45.3946 4.33293 49.436 0.072876 55.1879 0.072876C58.6845 0.072876 60.8036 1.24973 62.62 2.92262L60.4757 5.30067C58.9569 3.93901 57.3323 3.02476 55.1577 3.02476C51.5501 3.02476 48.8911 5.89884 48.8911 9.48292V9.53641C48.8911 13.1156 51.5199 16.0189 55.1577 16.0189C57.4887 16.0189 58.9822 15.1289 60.6068 13.6651L62.7512 15.7563C60.7733 17.7452 58.6038 18.9999 55.0466 18.9999C49.5218 19.0048 45.3946 14.8469 45.3946 9.58989Z" fill="white"/>
<path d="M86.6317 0.389038H95.1486C97.3182 0.389038 99.0286 0.962886 100.113 2.00844C100.956 2.82057 101.39 3.81263 101.39 5.04298V5.09646C101.39 7.29456 100.088 8.46656 98.6755 9.17657C100.901 9.91088 102.444 11.1363 102.444 13.6214V13.6749C102.444 16.9428 99.6492 18.6935 95.421 18.6935H86.6317V0.389038ZM98.0498 5.56333C98.0498 4.12386 96.854 3.23878 94.7147 3.23878H89.9164V8.10182H94.4725C96.6168 8.10182 98.0549 7.2897 98.0549 5.61681V5.56333H98.0498ZM95.1991 10.8203H89.9113V15.8389H95.4463C97.7269 15.8389 99.1094 14.9782 99.1094 13.3296V13.2761C99.1043 11.7345 97.8328 10.8203 95.1991 10.8203Z" fill="white"/>
<path d="M125.225 0.389038H128.318L138.49 13.0427V0.389038H141.774V18.6887H138.979L128.51 5.67031V18.6887H125.23V0.389038H125.225Z" fill="white"/>
<path d="M147.349 0.31604H150.7V9.55587L159.767 0.31604H163.879L155.952 8.21366L164.232 18.6839H160.175L153.667 10.4166L150.7 13.3539V18.6839H147.349V0.31604Z" fill="white"/>
<path d="M66.3486 0.31604H69.6989V9.55587L78.7657 0.31604H82.8778L74.9513 8.21366L83.231 18.6839H79.1744L72.6656 10.4166L69.6989 13.3539V18.6839H66.3486V0.31604Z" fill="white"/>
<path d="M165.221 17.0207H164.57V16.5977H166.366V17.0207H165.715V18.6984H165.221V17.0207ZM166.825 16.5977H167.35L167.92 17.4827L168.49 16.5977H169V18.6936H168.536V17.2785L167.935 18.1976H167.895L167.295 17.2785V18.6936H166.83V16.5977H166.825Z" fill="white"/>
</svg>
